<svg xmlns="http://www.w3.org/2000/svg" viewBox="0 0 1000 620">
  <g fill="none" stroke="#c79a67" stroke-width="7" stroke-linecap="round" stroke-linejoin="round" opacity=".34">
    <path d="M0 0h205c-4 88-30 126-96 158C60 183 21 162 0 143z"/>
    <path d="M18 18l142 118M55 4l136 112M4 55l127 105M185 18L45 146M211 52L82 165"/>
    <path d="M111 153c1 34-3 71-20 90-15 17-28 2-21-19 8-24 1-56-14-64"/>

    <path d="M387 0h226c-5 89-34 124-103 145-59 18-104-18-123-66z"/>
    <path d="M411 15l154 110M453 5l137 102M394 58l132 94M586 16L447 136M609 55L489 155"/>
    <path d="M465 145c-2 35 1 74-18 89-16 12-26-7-18-29 8-19 2-45-7-60"/>
    <path d="M546 142c0 40 3 85-19 98-16 9-27-14-15-34 10-16 4-47-2-64"/>

    <g transform="translate(1000 0) scale(-1 1)">
      <path d="M0 0h205c-4 88-30 126-96 158C60 183 21 162 0 143z"/>
      <path d="M18 18l142 118M55 4l136 112M4 55l127 105M185 18L45 146M211 52L82 165"/>
      <path d="M111 153c1 34-3 71-20 90-15 17-28 2-21-19 8-24 1-56-14-64"/>
    </g>

    <path d="M0 235c59 3 85 22 89 70 3 38 17 66 45 74 32 9 34 34 4 50-40 22-74 11-98-23C18 375 0 347 0 318z"/>
    <path d="M51 304c18 8 32 25 28 45-4 18 3 35 19 42M23 339c18 5 30 17 35 34"/>

    <g transform="translate(1000 0) scale(-1 1)">
      <path d="M0 235c59 3 85 22 89 70 3 38 17 66 45 74 32 9 34 34 4 50-40 22-74 11-98-23C18 375 0 347 0 318z"/>
      <path d="M51 304c18 8 32 25 28 45-4 18 3 35 19 42M23 339c18 5 30 17 35 34"/>
    </g>

    <g transform="translate(0 620) scale(1 -1)">
      <path d="M0 0h205c-3 84-31 124-98 157C58 181 20 161 0 142z"/>
      <path d="M20 18l140 116M56 5l132 110M4 54l126 104M184 18L45 145M208 52L82 163"/>
    </g>

    <path d="M360 620c15-52 49-80 94-88 34-6 58-22 78-44 17-18 38-7 29 14-6 15-18 29-32 41 30-6 55-21 74-43 16-18 38-7 29 14-15 35-47 62-92 76-52 17-105 23-150 30z"/>
    <path d="M480 541c23 13 44 18 67 12M447 563c25 10 51 12 78 6"/>

    <g transform="translate(1000 620) scale(-1 -1)">
      <path d="M0 0h205c-3 84-31 124-98 157C58 181 20 161 0 142z"/>
      <path d="M20 18l140 116M56 5l132 110M4 54l126 104M184 18L45 145M208 52L82 163"/>
    </g>
  </g>
</svg>