<svg xmlns="http://www.w3.org/2000/svg" viewBox="0 0 1000 620">
  <g fill="none" stroke="#c79a67" stroke-width="7" stroke-linecap="round" stroke-linejoin="round" opacity=".42">
    <!-- top-left waffle -->
    <path d="M0 0h210c0 92-28 132-93 164C64 190 20 168 0 145z"/>
    <path d="M22 18l143 122M58 5l137 116M4 56l130 110M188 18L48 150M214 52L86 170"/>
    <path d="M114 161c0 32-4 73-20 91-16 18-29 3-22-19 8-24 0-60-16-67"/>
    <!-- top-center waffle + drips -->
    <path d="M385 0h235c-6 93-35 127-106 147-63 17-107-21-129-70z"/>
    <path d="M412 15l158 113M455 4l142 104M395 58l135 98M593 16L448 139M616 56L494 158"/>
    <path d="M466 146c-4 34 1 78-20 92-17 12-27-8-18-31 8-19 2-48-7-61M550 143c-1 40 3 90-21 103-17 9-29-15-16-36 10-17 4-49-2-66M601 126c5 27 10 59-6 71-13 10-23-6-15-23 7-15 2-34-5-48"/>
    <!-- top-right waffle -->
    <g transform="translate(1000 0) scale(-1 1)">
      <path d="M0 0h210c0 92-28 132-93 164C64 190 20 168 0 145z"/>
      <path d="M22 18l143 122M58 5l137 116M4 56l130 110M188 18L48 150M214 52L86 170"/>
      <path d="M114 161c0 32-4 73-20 91-16 18-29 3-22-19 8-24 0-60-16-67"/>
    </g>

    <!-- mid-left organic/chocolate shape -->
    <path d="M0 235c62 2 89 22 92 74 2 39 17 69 47 77 34 9 35 35 3 52-42 22-77 12-102-24C18 381 0 351 0 321z"/>
    <path d="M52 307c18 8 34 27 29 48-4 18 3 37 20 45M23 342c19 5 31 17 37 36"/>
    <!-- mid-right shape -->
    <g transform="translate(1000 0) scale(-1 1)">
      <path d="M0 235c62 2 89 22 92 74 2 39 17 69 47 77 34 9 35 35 3 52-42 22-77 12-102-24C18 381 0 351 0 321z"/>
      <path d="M52 307c18 8 34 27 29 48-4 18 3 37 20 45M23 342c19 5 31 17 37 36"/>
    </g>

    <!-- bottom-left waffle -->
    <g transform="translate(0 620) scale(1 -1)">
      <path d="M0 0h205c-3 84-31 124-98 157C58 181 20 161 0 142z"/>
      <path d="M20 18l140 116M56 5l132 110M4 54l126 104M184 18L45 145M208 52L82 163"/>
      <path d="M112 153c17 25 38 44 64 49 26 5 43 20 43 39M155 175c20 7 39 21 52 41"/>
    </g>
    <!-- bottom-center hand/drip -->
    <path d="M360 620c15-52 49-80 94-88 34-6 58-22 78-44 17-18 38-7 29 14-6 15-18 29-32 41 30-6 55-21 74-43 16-18 38-7 29 14-15 35-47 62-92 76-52 17-105 23-150 30z"/>
    <path d="M480 541c23 13 44 18 67 12M447 563c25 10 51 12 78 6"/>
    <!-- bottom-right waffle -->
    <g transform="translate(1000 620) scale(-1 -1)">
      <path d="M0 0h205c-3 84-31 124-98 157C58 181 20 161 0 142z"/>
      <path d="M20 18l140 116M56 5l132 110M4 54l126 104M184 18L45 145M208 52L82 163"/>
    </g>
  </g>
</svg>